<svg width="360" height="500" viewBox="0 0 360 500" fill="none" xmlns="http://www.w3.org/2000/svg">
<path d="M20.3584 370.448H351.267" stroke="#231F20" stroke-width="2" stroke-miterlimit="10"/>
<path d="M54.695 368.7L53.3188 326.755C53.3188 326.755 53.3188 326.717 53.3188 326.698C53.2746 326.376 52.82 323.617 50.6799 320.852C50.1117 320.12 49.8276 318.144 49.7203 315.581C49.4741 309.735 50.1433 300.859 50.4905 296.856C50.541 296.301 51.2986 296.174 51.5258 296.686L52.8453 299.678C53.0536 300.145 53.7354 300.095 53.8617 299.596L55.3895 293.813C55.4905 293.434 55.945 293.283 56.2481 293.529L59.1016 295.802C59.4488 296.08 59.9602 295.846 59.9791 295.404L60.1622 291.357C60.1811 290.878 60.7683 290.663 61.0965 291.01L63.4703 293.554C63.7923 293.902 64.3794 293.693 64.4046 293.22L64.6824 288.535C64.695 288.346 64.6067 288.169 64.4551 288.062L62.214 286.477C61.9425 286.282 61.9046 285.89 62.1445 285.65L63.2935 284.501C63.3945 284.4 63.5334 284.343 63.6786 284.343H66.2923C66.8036 284.343 67.0309 283.693 66.6269 283.378L64.3668 281.61C64.089 281.395 64.089 280.979 64.3668 280.758L66.1344 279.35C66.4122 279.129 66.4059 278.699 66.1155 278.491L62.7569 276.054C62.4539 275.833 62.4602 275.385 62.7632 275.17L64.6003 273.895C64.7203 273.813 64.796 273.687 64.8213 273.548L65.0233 272.399C65.0864 272.052 64.8024 271.736 64.4488 271.768L60.0233 272.109C59.512 272.146 59.2405 271.515 59.613 271.168L61.993 268.977C62.3465 268.655 62.1319 268.062 61.6584 268.037L55.4084 267.689C55.137 267.677 54.9223 267.462 54.8971 267.191L54.7013 264.634C54.6698 264.236 54.2342 264.003 53.887 264.211L49.9412 266.528C49.5814 266.742 49.1269 266.477 49.1269 266.061V263.333L47.0814 265.379C46.9804 265.48 46.9236 265.619 46.9236 265.764V267.828C46.9236 268.169 46.6142 268.422 46.2859 268.359L45.0107 268.125C44.9665 268.119 44.9223 268.106 44.8844 268.087L41.6332 266.604C41.589 266.585 41.5385 266.566 41.488 266.559L40.0107 266.338C39.7582 266.301 39.512 266.446 39.4236 266.686L39.2152 267.247C39.1647 267.38 39.171 267.525 39.2215 267.652L40.2001 269.931C40.2253 269.994 40.2632 270.044 40.3074 270.095L41.166 270.985C41.5006 271.332 41.2481 271.913 40.762 271.9L39.2342 271.862C39.171 271.862 39.1142 271.85 39.0511 271.825L37.0056 271.042C36.6521 270.903 36.2733 271.168 36.2733 271.547V272.058C36.2733 272.172 36.3112 272.279 36.3743 272.374L38.6218 275.537L39.0195 276.061C39.2973 276.433 39.0132 276.957 38.5524 276.926L35.3832 276.717C35.339 276.717 35.3011 276.717 35.2569 276.717L33.7165 276.976C33.6092 276.995 33.5145 277.039 33.4324 277.115L32.738 277.765C32.5044 277.986 32.5107 278.359 32.7569 278.567C33.142 278.895 33.6849 279.35 33.9943 279.571C34.5056 279.937 35.8314 280.676 36.0524 280.821C36.2733 280.966 37.3718 281.629 37.3718 281.629C37.3718 281.629 38.4008 282.216 38.1799 282.361C37.9589 282.506 37.5928 282.14 36.1218 282.727C34.8276 283.245 33.8806 283.592 33.666 283.668C33.6344 283.681 33.6092 283.693 33.5776 283.712L32.8895 284.129L32.8137 284.571C32.8137 284.571 36.1912 285.234 36.8541 285.379C37.4728 285.518 38.9248 285.783 39.1142 285.814C39.1269 285.814 39.1395 285.814 39.1584 285.814L39.8718 285.884L39.7013 286.446C39.6698 286.559 39.6003 286.654 39.5056 286.723L36.7721 288.775C36.7342 288.807 36.6963 288.845 36.6647 288.883L35.9008 289.899C35.8503 289.962 35.8188 290.038 35.8061 290.12L35.5915 291.206C35.5599 291.37 35.6041 291.54 35.7114 291.667L36.3491 292.405C36.4438 292.513 36.57 292.576 36.7089 292.588L38.9185 292.79C38.9185 292.79 39.7266 292.866 41.4185 292.569C41.7784 292.506 42.1445 292.443 42.4918 292.374C43.0789 292.266 43.3819 293.049 42.8705 293.365C42.5549 293.561 42.3024 293.718 42.0751 293.889C41.7152 294.16 41.046 294.539 40.5915 294.792C40.2443 294.987 40.2064 295.486 40.541 295.707C40.7493 295.846 41.0524 295.979 41.488 296.092C42.9589 296.458 43.4008 296.458 43.988 296.604C44.5751 296.749 45.3074 296.749 45.7493 296.749C46.046 296.749 46.4817 296.679 46.7279 296.635C46.8541 296.61 46.9678 296.547 47.0498 296.446L47.8958 295.429C47.9779 295.328 48.0915 295.265 48.2241 295.24L48.6912 295.164C49.0322 295.107 49.3352 295.379 49.3226 295.72L48.4008 320.442C48.4008 320.556 48.4261 320.669 48.4892 320.764C48.9627 321.477 51.0397 324.779 51.0397 328.485C51.0397 332.67 50.743 353.681 50.743 353.681L50.9577 368.718C50.9577 369.015 51.2039 369.249 51.5006 369.249H54.1521C54.4551 369.249 54.7013 368.996 54.695 368.693V368.7Z" fill="#ECF8FE"/>
<path d="M51.2857 311.66L49.1582 314.564V317.418L52.4095 313.018L56.109 314.539C56.109 314.539 58.0282 314.097 58.5458 313.674C59.0635 313.251 60.5092 311.944 60.5092 311.944L61.4941 309.981L62.2895 308.813L65.3766 308.018C65.3766 308.018 66.8981 306.616 66.9297 306.471C66.9612 306.326 68.6532 306.004 68.6532 306.004C68.6532 306.004 70.3829 305.398 70.4776 305.164C70.5723 304.931 70.9953 303.056 70.9953 302.872C70.9953 302.689 70.4335 300.581 70.4335 300.581L66.311 299.83L63.5963 300.997L59.5244 301.837C59.5244 301.837 57.5105 302.21 56.109 303.15C54.7074 304.091 54.941 303.428 54.0951 304.463C53.2491 305.499 52.9271 305.777 52.6936 306.105C52.46 306.433 51.6645 307.835 51.5256 308.63C51.3867 309.426 51.4309 309.798 51.3867 310.177C51.3425 310.556 51.292 311.673 51.292 311.673L51.2857 311.66Z" fill="#ECF8FE"/>
<path d="M30.7116 325.783L33.6157 325.593L37.6435 326.111L39.8468 327.096L43.3127 328.314C43.3127 328.314 45.7495 329.066 45.9326 329.205C46.1157 329.343 47.6182 330.606 47.7129 330.934C47.8076 331.263 47.8076 331.686 47.9023 331.963C47.997 332.241 48.1359 332.241 48.5589 333.838C48.9819 335.436 48.9819 335.29 49.2154 336.458L49.449 337.626L50.7369 338.144L51.5955 338.8L51.2293 340.53L48.7483 338.239L47.997 338.939C47.997 338.939 44.2975 339.129 44.1586 339.034C44.0197 338.939 42.896 338.706 42.6119 338.706C42.3278 338.706 41.7723 338.984 40.4086 338.049C39.045 337.115 38.5841 335.941 38.5841 335.941C38.5841 335.941 38.0664 334.817 37.9276 334.539C37.7887 334.261 37.1321 333.415 37.0374 333.062C36.9427 332.708 36.1031 331.73 35.5854 331.54C35.0677 331.351 34.5058 331.073 33.6662 330.84C32.8265 330.606 31.4187 330.183 31.2798 330.044C31.1409 329.905 30.9074 329.716 30.718 329.205C30.5286 328.693 30.718 328.27 30.718 327.986C30.718 327.702 30.6359 327.38 30.6359 327.38L30.718 325.789L30.7116 325.783Z" fill="#ECF8FE"/>
<path d="M312.738 369.16L311.368 327.431C311.368 327.431 311.368 327.38 311.362 327.348C311.305 326.982 310.844 324.249 308.723 321.515C308.155 320.783 307.87 318.807 307.763 316.244C307.53 310.751 308.11 302.582 308.47 298.295C308.533 297.532 309.575 297.361 309.884 298.062L310.661 299.823C310.945 300.461 311.873 300.391 312.05 299.716L313.35 294.773C313.489 294.255 314.108 294.047 314.524 294.381L316.835 296.225C317.309 296.604 318.009 296.282 318.035 295.682L318.18 292.494C318.211 291.837 319.013 291.547 319.461 292.02L321.197 293.883C321.639 294.356 322.441 294.072 322.479 293.422L322.719 289.312C322.732 289.059 322.618 288.813 322.41 288.662L320.453 287.273C320.08 287.008 320.03 286.471 320.358 286.143L321.286 285.215C321.425 285.076 321.614 285 321.81 285H323.767C324.468 285 324.777 284.11 324.221 283.681L322.612 282.424C322.233 282.128 322.233 281.559 322.612 281.263L323.982 280.177C324.367 279.874 324.354 279.287 323.956 278.996L321.033 276.875C320.623 276.578 320.629 275.96 321.046 275.669L322.58 274.602C322.744 274.489 322.851 274.318 322.889 274.122L323.035 273.308C323.117 272.835 322.732 272.405 322.252 272.443L318.653 272.721C317.953 272.778 317.58 271.913 318.098 271.439L319.708 269.962C320.187 269.52 319.903 268.712 319.247 268.681L313.641 268.371C313.268 268.352 312.971 268.056 312.946 267.689L312.788 265.625C312.744 265.082 312.151 264.766 311.677 265.044L308.306 267.02C307.814 267.311 307.195 266.951 307.195 266.383V264.003L305.206 265.991C305.067 266.13 304.992 266.319 304.992 266.515V268.258C304.992 268.718 304.575 269.072 304.114 268.984L303.098 268.794C303.041 268.782 302.978 268.763 302.927 268.737L299.726 267.279C299.663 267.247 299.594 267.229 299.531 267.222L298.243 267.033C297.896 266.982 297.567 267.178 297.441 267.506L297.315 267.841C297.245 268.018 297.252 268.22 297.328 268.39L298.262 270.562C298.3 270.644 298.344 270.72 298.407 270.783L298.906 271.3C299.367 271.774 299.013 272.569 298.357 272.551L297.346 272.525C297.264 272.525 297.176 272.506 297.1 272.475L295.358 271.806C294.872 271.616 294.354 271.976 294.354 272.494V272.652C294.354 272.803 294.405 272.955 294.493 273.081L296.709 276.193L296.841 276.376C297.22 276.881 296.829 277.601 296.197 277.557L293.483 277.374C293.426 277.374 293.369 277.374 293.312 277.38L291.854 277.62C291.709 277.645 291.576 277.708 291.469 277.809L290.983 278.264C290.661 278.567 290.673 279.078 291.008 279.369C291.374 279.678 291.81 280.038 292.069 280.227C292.58 280.593 293.906 281.332 294.127 281.477C294.348 281.622 295.446 282.285 295.446 282.285C295.446 282.285 296.475 282.872 296.254 283.018C296.033 283.163 295.667 282.797 294.196 283.384C292.94 283.889 292.006 284.23 291.759 284.318C291.715 284.337 291.677 284.356 291.633 284.381L290.958 284.785L290.882 285.227C290.882 285.227 294.259 285.89 294.922 286.035C295.535 286.168 296.955 286.433 297.17 286.471C297.189 286.471 297.208 286.471 297.226 286.477L297.934 286.547L297.782 287.045C297.738 287.197 297.643 287.33 297.517 287.424L294.859 289.419C294.802 289.463 294.752 289.514 294.714 289.564L293.994 290.524C293.931 290.612 293.881 290.713 293.862 290.821L293.672 291.768C293.628 291.995 293.691 292.222 293.836 292.399L294.36 292.999C294.487 293.144 294.663 293.232 294.853 293.251L296.98 293.447C296.98 293.447 297.788 293.523 299.48 293.226C299.518 293.22 299.562 293.213 299.6 293.207C300.377 293.068 300.793 294.066 300.156 294.539C300.156 294.539 300.143 294.545 300.137 294.552C299.853 294.766 299.386 295.044 298.975 295.278C298.426 295.587 298.495 296.395 299.089 296.616C299.221 296.667 299.373 296.717 299.55 296.755C301.021 297.121 301.463 297.121 302.05 297.266C302.637 297.412 303.369 297.412 303.811 297.412C304.083 297.412 304.461 297.355 304.714 297.311C304.884 297.279 305.042 297.191 305.156 297.058L305.907 296.155C306.021 296.016 306.179 295.928 306.355 295.896L306.513 295.871C306.974 295.795 307.391 296.162 307.372 296.629L306.463 321.042C306.463 321.193 306.494 321.345 306.583 321.471C307.113 322.273 309.101 325.511 309.101 329.141C309.101 333.327 308.805 354.337 308.805 354.337L309.013 369.179C309.013 369.583 309.348 369.912 309.752 369.912H312.006C312.422 369.912 312.757 369.564 312.744 369.148L312.738 369.16Z" fill="#ECF8FE"/>
<path d="M309.74 312.601L307.612 315.505V318.359L310.864 313.958L314.563 315.48C314.563 315.48 316.482 315.038 317 314.615C317.518 314.192 318.963 312.885 318.963 312.885L319.948 310.922L320.744 309.754L323.831 308.958C323.831 308.958 325.352 307.557 325.384 307.412C325.415 307.266 327.107 306.944 327.107 306.944C327.107 306.944 328.837 306.338 328.932 306.105C329.026 305.871 329.449 303.996 329.449 303.813C329.449 303.63 328.888 301.521 328.888 301.521L324.765 300.77L322.05 301.938L317.978 302.778C317.978 302.778 315.965 303.15 314.563 304.091C313.162 305.032 313.395 304.369 312.549 305.404C311.703 306.439 311.381 306.717 311.148 307.045C310.914 307.374 310.119 308.775 309.98 309.571C309.841 310.366 309.885 310.739 309.841 311.117C309.797 311.496 309.746 312.614 309.746 312.614L309.74 312.601Z" fill="#ECF8FE"/>
<path d="M288.565 326.452L291.469 326.263L295.497 326.78L297.7 327.765L301.166 328.984C301.166 328.984 303.603 329.735 303.786 329.874C303.969 330.013 305.472 331.275 305.566 331.604C305.661 331.932 305.661 332.355 305.756 332.633C305.851 332.91 305.989 332.91 306.412 334.508C306.835 336.105 306.835 335.96 307.069 337.128L307.303 338.295L308.59 338.813L309.449 339.47L309.083 341.2L306.602 338.908L305.851 339.609C305.851 339.609 302.151 339.798 302.012 339.703C301.873 339.609 300.75 339.375 300.465 339.375C300.181 339.375 299.626 339.653 298.262 338.718C296.899 337.784 296.438 336.61 296.438 336.61C296.438 336.61 295.92 335.486 295.781 335.208C295.642 334.931 294.986 334.085 294.891 333.731C294.796 333.378 293.957 332.399 293.439 332.21C292.921 332.02 292.359 331.742 291.52 331.509C290.68 331.275 289.272 330.852 289.133 330.713C288.994 330.574 288.761 330.385 288.571 329.874C288.382 329.362 288.571 328.939 288.571 328.655C288.571 328.371 288.489 328.049 288.489 328.049L288.571 326.458L288.565 326.452Z" fill="#ECF8FE"/>
<path d="M210.118 192.645C212.233 195.865 219.998 208.914 227.58 221.149C228.016 221.856 228.83 222.891 229.5 223.39L231.387 224.811C231.595 224.968 231.899 224.83 231.911 224.571L231.993 223.378C232.012 223.131 232.246 222.961 232.486 223.011L241.551 224.924C241.766 224.968 241.924 225.158 241.93 225.379L241.993 227.569C242 227.822 241.81 228.037 241.558 228.068L241.122 228.112C240.895 228.138 240.724 228.34 240.731 228.567C241.015 235.896 240.162 237.797 240.162 237.797C240.162 237.797 238.59 243.34 234.045 242.677C229.5 242.014 229.676 237.001 229.676 237.001C222.473 233.895 223.445 229.331 223.445 229.331C222.858 228.611 221.671 227.134 220.232 225.227C213.887 216.85 209.714 209.596 209.266 209.855C209.19 209.899 208.931 210.36 208.969 210.505C210.106 215.158 209.916 223.832 209.916 223.832C219.222 252.045 219.664 253.232 219.664 253.232C224.361 267.513 231.343 291.364 241.494 333.479C241.577 333.826 241.722 334.167 241.917 334.463C254.474 354.028 255.2 353.636 255.2 353.636C255.213 353.636 255.213 353.624 255.226 353.617C261.065 349.053 264.746 346.181 264.045 344.558C264.007 344.463 263.963 344.407 263.938 344.375C263.029 343.068 256.021 330.833 237.726 298.333C237.631 298.169 237.587 297.973 237.606 297.784L239.904 271.092C239.935 270.694 240.068 270.316 240.295 269.987C242.915 266.237 246.274 257.184 246.274 257.184C246.274 257.184 248.742 249.716 248.369 240.271C248.338 239.407 248.256 238.914 248.212 238.175C247.928 232.746 245.661 229.836 245.649 229.331C245.642 228.996 246.343 228.788 247.669 229.021C247.669 229.021 246.532 214.741 247.126 200.581C247.568 190.057 248.559 189.236 249.607 172.02C250.036 164.968 249.979 161.389 249.954 158.245C249.878 148.22 244.67 139.52 241.072 134.129C241.072 134.129 230.863 138.687 225.371 143.725C221.217 148.409 219.329 153.99 217.322 158.971C217.385 158.819 210.756 174.223 208.262 181.048C207.536 183.03 207.347 185.183 207.757 187.254C208.01 188.51 208.445 189.899 209.083 191.098L210.093 192.645H210.118Z" fill="#262262" stroke="#262262" stroke-miterlimit="10"/>
<path d="M216.533 147.633C216.533 147.633 212.101 157.771 207.574 163.845L198.357 148.163C198.155 147.816 197.852 147.532 197.486 147.355L183.951 140.732C183.742 140.631 183.566 140.486 183.427 140.303L176.173 130.783L181.773 126.66L208.452 146.345C208.856 146.641 209.323 146.825 209.822 146.881L216.539 147.626L216.533 147.633Z" fill="#262262" stroke="#262262" stroke-miterlimit="10"/>
<path d="M225.093 146.313L213.079 170.739L222.871 147.961L225.093 146.313Z" fill="white"/>
<path d="M212.77 180.158C213.593 180.158 214.26 179.491 214.26 178.668C214.26 177.845 213.593 177.178 212.77 177.178C211.947 177.178 211.28 177.845 211.28 178.668C211.28 179.491 211.947 180.158 212.77 180.158Z" fill="#FDEB6B" stroke="#262262" stroke-miterlimit="10"/>
<path d="M210.97 184.299C211.793 184.299 212.46 183.632 212.46 182.809C212.46 181.987 211.793 181.319 210.97 181.319C210.148 181.319 209.48 181.987 209.48 182.809C209.48 183.632 210.148 184.299 210.97 184.299Z" fill="#FDEB6B" stroke="#262262" stroke-miterlimit="10"/>
<path d="M221.792 148.346L221.597 139.665C221.597 139.596 221.641 139.539 221.704 139.527C222.222 139.413 225.037 138.497 239.229 131.376C239.299 131.338 239.387 131.37 239.425 131.439L240.959 134.356C240.991 134.419 240.972 134.495 240.915 134.539L222.02 148.466C221.925 148.535 221.792 148.466 221.792 148.352V148.346Z" fill="#DA1C5C" stroke="#DA1C5C" stroke-miterlimit="10"/>
<path d="M173.976 128.428L176.375 131.477C176.426 131.54 176.508 131.547 176.571 131.503L182.897 126.894C182.966 126.843 182.973 126.749 182.922 126.686L180.062 123.213C180.012 123.15 179.917 123.144 179.86 123.194L173.989 128.226C173.932 128.277 173.92 128.365 173.97 128.422L173.976 128.428Z" fill="#DA1C5C" stroke="#DA1C5C" stroke-miterlimit="10"/>
<path d="M231.937 223.359L231.634 225.246C231.622 225.316 231.66 225.379 231.723 225.404C232.613 225.726 238.8 227.917 241.729 227.967C241.811 227.967 241.874 227.904 241.874 227.822V225.114C241.874 225.044 241.824 224.987 241.754 224.975L232.101 223.245C232.026 223.232 231.95 223.283 231.937 223.365V223.359Z" fill="#DA1C5C" stroke="#DA1C5C" stroke-miterlimit="10"/>
<path d="M256.799 353.624L251.477 362.462L245.656 365.979C245.656 365.979 244.248 367.582 245.656 370.095C247.064 372.607 269.052 360.96 269.052 360.96C269.052 360.96 270.959 360.057 269.854 356.944C268.749 353.832 267.342 352.323 267.342 352.323C267.342 352.323 261.641 357.235 257.613 353.624" fill="#231F20"/>
<path d="M256.799 353.624L251.477 362.462L245.656 365.979C245.656 365.979 244.248 367.582 245.656 370.095C247.064 372.607 269.052 360.96 269.052 360.96C269.052 360.96 270.959 360.057 269.854 356.944C268.749 353.832 267.342 352.323 267.342 352.323C267.342 352.323 261.641 357.235 257.613 353.624" stroke="#231F20" stroke-width="2" stroke-miterlimit="10"/>
<path d="M201.072 369.691H231.697C231.697 369.691 232.6 361.256 230.795 359.451L201.072 369.691Z" fill="#231F20" stroke="#231F20" stroke-width="2" stroke-miterlimit="10"/>
<path d="M89.4367 362.525C89.6198 363.037 89.7398 363.573 89.8155 364.11C90.2827 367.544 94.4493 383.516 131.766 382.304C173.559 380.947 219.033 364.11 227.126 361.427C233.01 359.47 238.237 354.968 240.649 352.664C241.665 351.686 242.398 350.448 242.732 349.078C244.449 342.058 242.063 334.994 242.063 334.994L233.97 302.872L226.722 276.78L216.129 244.255L210.573 225.941C210.03 224.141 209.689 222.285 209.569 220.404L209.071 212.664C209.039 212.216 209.052 211.768 209.108 211.326L211.021 195.669C211.11 195.019 210.964 194.362 210.617 193.813L207.53 188.914C207.145 188.289 207.151 188.138 206.766 187.79C205.832 186.938 205.15 185.846 204.961 184.59C204.733 183.037 204.494 181.105 204.494 179.855L205.087 174.034L206.975 167.058C207.555 164.899 207.221 162.601 206.04 160.701L206.015 160.657L203.401 156.484C202.789 155.499 202.101 154.571 201.406 153.643C198.761 150.12 197.903 145.587 197.688 144.135C197.65 143.864 197.423 143.662 197.145 143.655C191.204 143.441 183.502 141.01 183.502 141.01C178.098 146.199 177.221 153.775 177.214 158.062C177.214 159.609 177.448 161.149 177.959 162.607C178.471 164.066 179.222 166.831 180.182 172.494C181.59 180.789 180.238 186.894 179.759 188.668C179.67 189.003 179.456 189.293 179.172 189.482C166.709 197.835 161.103 211.869 159.115 218.207C158.584 219.905 158.231 221.648 158.054 223.415C156.52 238.946 148.092 253.327 148.092 253.327C124.418 302.525 109.468 315.208 103.805 318.441C102.593 319.129 101.236 319.527 99.8471 319.628C73.5655 321.553 80.4721 331.004 80.4721 331.004C80.491 331.029 80.5163 331.054 80.5352 331.08C86.8547 338.277 85.7877 343.062 85.3521 344.28C85.188 344.741 85.0365 345.202 84.9291 345.676C84.563 347.33 84.1021 350.669 85.2322 354.312C85.6994 355.808 86.4759 357.191 87.3976 358.46C87.9279 359.186 88.7107 360.48 89.443 362.519L89.4367 362.525Z" fill="#ECF8FE"/>
<path d="M194.974 188.718C187.663 187.79 180.182 188.769 180.182 188.769L179.728 188.617" fill="#ECF8FE"/>
<path d="M194.974 188.718C187.663 187.79 180.182 188.769 180.182 188.769L179.728 188.617" stroke="#CC4B9B" stroke-width="2" stroke-miterlimit="10"/>
<path d="M174.354 128.977L180.769 123.516L175.636 118.15C175.415 117.923 175.08 117.854 174.796 117.992C173.351 118.706 170.282 117.367 169.146 117.38C165.245 117.443 168.666 123.314 168.666 123.314L174.348 128.971L174.354 128.977Z" fill="#FCDBE2" stroke="#FCDCDE" stroke-width="2" stroke-miterlimit="10"/>
<path d="M209.999 192.494C214.532 199.413 227.878 221.389 228.787 223.883L231.362 225.259L240.655 227.702V235.215C240.655 235.215 240.213 241.749 234.475 241.837C230.365 241.9 229.702 238.952 229.658 237.279C229.639 236.635 229.241 236.061 228.629 235.852C227.467 235.461 225.655 234.621 224.652 232.992C223.787 231.585 223.635 230.581 223.673 229.962C223.711 229.343 223.509 228.756 223.143 228.264L210.024 210.676L198.206 194.754C197.051 193.194 196.091 191.496 195.346 189.703L184.412 163.194C184.412 163.194 179.879 155.145 186.28 151.856C192.682 148.567 195.706 153.939 195.706 153.939C195.706 153.939 200.883 167.784 201.59 171.553C201.83 172.828 202.013 173.529 202.278 174.28L207.796 188.226C208.383 189.716 209.121 191.149 209.999 192.487V192.494Z" fill="#FCDBE2" stroke="#FCDCDE" stroke-width="2" stroke-miterlimit="10"/>
<path d="M210.036 175.72L212.239 171.572C212.833 170.455 213.369 169.312 213.843 168.138C215.554 163.927 219.859 153.378 221.046 151.048C222.536 148.119 222.738 145.543 222.738 145.543L222.921 141.338C222.921 140.985 221.734 140.934 221.444 141.13L216.766 146.08C216.766 146.08 215.226 149.122 215.56 150.271C215.895 151.42 215.522 152.229 215.522 152.229L206.886 169.552L203.868 174.893L207.189 183.308L207.675 181.585C208.249 179.545 209.039 177.582 210.03 175.713L210.036 175.72Z" fill="#FCDBE2" stroke="#FCDCDE" stroke-width="2" stroke-miterlimit="10"/>
<path d="M256.324 351.787L262.644 345.72L266.495 352.437C266.495 352.437 264.563 354.432 261.817 354.621C259.07 354.811 256.324 351.787 256.324 351.787Z" fill="#FCDBE2" stroke="#FCDCDE" stroke-width="2" stroke-miterlimit="10"/>
<path d="M189.354 141.932C189.354 141.932 194.834 143.365 197.031 143.314L197.587 137.197C197.587 137.197 203.957 138.554 208.395 132.348C212.833 126.143 210.2 119.489 210.2 119.489C210.2 119.489 204.121 108.106 193.148 113.984C182.176 119.861 183.609 130.65 183.609 130.65L184.114 140.619L189.354 141.938V141.932Z" fill="#FCDBE2" stroke="#FCDCDE" stroke-width="2" stroke-miterlimit="10"/>
<path d="M214.184 113.649C214.184 113.649 212.088 129.186 224.992 131.035V138.718L238.268 132.02L238.06 129.634L237.896 117.058L230.705 109.987L221.501 109.122L216.115 111.919L214.184 113.643V113.649Z" fill="#FCDBE2"/>
<path d="M203.218 174.899L207.277 185.246L208.508 181.124L203.218 174.899Z" fill="#FACBD8"/>
<path d="M231.4 224.596C231.4 224.596 227.499 231.294 228.25 232.128C229.001 232.961 230.175 233.207 229.778 234.388C229.38 235.568 228.515 236.49 228.515 236.49C228.515 236.49 228.338 236.345 228.111 236.086C227.524 235.41 228.502 234.596 228.458 234.053C228.389 233.182 227.347 232.298 226.892 231.932C226.173 231.351 229.714 226.559 230.908 224.766C231.185 224.356 231.4 224.602 231.4 224.602V224.596Z" fill="#FACBD8"/>
<path d="M182.076 109.602C182.278 109.35 182.29 109.003 182.101 108.744C180.958 107.172 177.505 101.578 183.136 97.9545C189.74 93.6995 194.437 97.4684 194.437 97.4684C194.437 97.4684 198.351 101.774 197.24 105.53C197.145 105.84 197.404 106.143 197.72 106.08C200.788 105.473 212.013 103.952 210.037 114.577C209.967 114.943 210.081 115.316 210.359 115.562C211.306 116.414 213.061 118.775 211.394 121.275C211.394 121.275 209.336 110.852 199.096 116.881C188.856 122.91 189.563 130.713 189.563 130.713C189.563 130.713 192.846 138.782 190.093 140.335C187.568 141.761 186.943 142.247 185.851 141.806C185.712 141.749 185.681 141.566 185.801 141.477C186.596 140.852 188.875 138.769 186.905 136.881C184.936 134.994 183.559 139.072 183.25 140.202C183.218 140.309 183.08 140.335 183.01 140.246L176.394 131.326C176.16 131.016 176.318 130.568 176.691 130.461L179.418 129.703C179.418 129.703 173.414 120.549 182.076 109.615V109.602Z" fill="#231F20" stroke="#231F20" stroke-width="2" stroke-miterlimit="10"/>
<path d="M212.404 109.047C213.017 106.957 214.336 105.145 216.059 103.819C219.607 101.08 226.969 97.2096 235.794 102.746C248.263 110.568 244.696 117.702 244.696 117.702C244.696 117.702 241.678 126.13 237.884 130.019C237.587 130.322 237.139 130.41 236.754 130.227L234.185 129.021C233.888 128.883 233.711 128.573 233.743 128.251C233.919 126.452 234.267 120.701 231.653 120.12C229.355 119.609 227.726 121.408 227.038 122.38C226.823 122.683 226.4 122.721 226.123 122.481L220.864 117.822C220.523 117.519 220.403 117.045 220.554 116.622L221.647 113.542C221.754 113.245 221.501 112.942 221.186 112.999L215.839 113.895C215.176 114.009 214.488 113.971 213.869 113.718C212.764 113.277 211.527 112.109 212.417 109.059L212.404 109.047Z" fill="#231F20" stroke="#231F20" stroke-width="2" stroke-miterlimit="10"/>
</svg>
